<?xml version="1.0" standalone="no"?>
<!DOCTYPE svg PUBLIC "-//W3C//DTD SVG 20010904//EN"
 "http://www.w3.org/TR/2001/REC-SVG-20010904/DTD/svg10.dtd">
<svg version="1.0" xmlns="http://www.w3.org/2000/svg"
 width="2000.000000pt" height="2000.000000pt" viewBox="0 0 2000.000000 2000.000000"
 preserveAspectRatio="xMidYMid meet">

<g transform="translate(0.000000,2000.000000) scale(0.100000,-0.100000)"
fill="#000000" stroke="none">
<path d="M0 10000 l0 -10000 10000 0 10000 0 0 10000 0 10000 -10000 0 -10000
0 0 -10000z m13137 638 c7 -5 13 -26 15 -46 3 -35 5 -37 46 -43 24 -3 48 -12
53 -20 5 -8 9 -109 9 -225 0 -235 1 -232 -68 -243 -34 -6 -37 -9 -40 -41 -2
-19 -8 -41 -14 -47 -8 -10 -96 -13 -379 -13 -321 0 -370 2 -383 16 -14 13 -16
58 -16 334 0 313 0 319 21 334 18 12 74 14 383 9 202 -3 366 -10 373 -15z
m-6909 0 c7 -7 12 -36 12 -64 0 -87 12 -84 -392 -84 l-348 0 0 -185 0 -185
291 0 290 0 -3 53 -3 52 -119 3 c-67 1 -126 7 -133 14 -16 13 -17 110 -1 126
17 17 279 17 296 0 7 -7 12 -22 12 -34 0 -41 11 -54 45 -54 53 0 65 -20 65
-109 0 -88 -8 -101 -61 -101 -35 0 -37 -2 -42 -40 -10 -73 6 -70 -347 -70
-244 0 -320 3 -328 13 -6 7 -12 30 -14 52 -3 39 -4 40 -43 43 -22 2 -45 8 -52
14 -10 8 -13 64 -13 224 0 209 0 213 22 228 12 9 37 16 55 16 32 0 33 2 33 38
0 21 5 43 12 50 9 9 108 12 383 12 275 0 374 -3 383 -12z m210 0 c8 -8 12 -53
12 -135 l0 -123 293 2 292 3 3 119 c1 67 7 126 14 133 11 13 93 18 122 7 14
-5 16 -44 16 -333 0 -241 -3 -330 -12 -339 -16 -16 -114 -16 -125 1 -4 6 -10
64 -13 127 l-5 115 -357 5 c-246 3 -361 9 -368 16 -15 15 -14 382 2 401 13 16
110 17 126 1z m1872 -7 c5 -11 10 -33 10 -50 0 -27 4 -31 26 -31 40 0 232
-190 236 -234 3 -28 7 -31 46 -37 24 -3 48 -12 53 -20 5 -8 9 -71 9 -141 0
-149 -5 -158 -80 -158 -72 0 -80 17 -80 158 0 73 -4 111 -10 107 -5 -3 -10
-21 -10 -40 0 -64 -5 -65 -267 -65 -264 0 -273 2 -273 66 0 18 -4 36 -10 39
-6 4 -10 -34 -10 -107 0 -140 -9 -158 -76 -158 -83 0 -84 2 -84 153 0 73 4
138 9 146 5 8 29 17 53 20 39 6 43 9 46 37 4 44 196 234 236 234 22 0 26 4 26
31 0 57 14 69 80 69 48 0 61 -4 70 -19z m578 7 c8 -8 12 -57 12 -154 0 -184 7
-234 31 -234 32 0 99 -68 99 -101 0 -24 4 -29 25 -29 26 0 29 4 39 53 6 25 4
27 -23 27 -37 0 -61 31 -61 80 0 50 18 70 68 77 60 8 92 -15 92 -67 0 -36 3
-40 25 -40 22 0 25 4 25 40 0 52 32 75 92 67 50 -7 68 -27 68 -77 0 -52 -23
-80 -68 -80 -28 0 -33 -3 -24 -12 7 -7 12 -25 12 -40 0 -24 4 -28 30 -28 26 0
30 4 30 28 0 40 60 102 99 102 l31 0 0 181 c0 105 4 188 10 200 9 15 22 19 68
19 32 0 63 -5 70 -12 18 -18 17 -411 -1 -426 -7 -6 -30 -12 -52 -14 -36 -3
-40 -6 -46 -36 -9 -44 -54 -90 -96 -98 -29 -5 -33 -10 -33 -37 0 -46 -25 -67
-81 -67 -57 0 -79 18 -79 66 l0 34 -55 0 c-53 0 -55 -1 -55 -28 0 -50 -25 -72
-80 -72 -58 0 -80 18 -80 65 0 30 -3 33 -35 39 -26 5 -44 18 -65 48 -17 23
-30 49 -30 60 0 14 -8 18 -34 18 -64 0 -66 8 -66 234 0 144 3 205 12 214 7 7
35 12 63 12 28 0 56 -5 63 -12z m1713 -15 c12 -32 6 -100 -11 -117 -8 -8 -120
-12 -371 -14 l-360 -3 3 -47 3 -47 301 -5 c229 -4 305 -8 317 -18 9 -8 17 -30
19 -50 3 -35 5 -37 43 -42 55 -7 65 -30 65 -165 0 -84 -4 -116 -16 -133 l-15
-22 -423 0 c-479 0 -451 -5 -451 80 0 84 -20 80 386 80 l359 0 0 43 c0 24 -5
48 -12 55 -9 9 -91 12 -309 12 -223 0 -300 3 -305 12 -4 7 -10 28 -14 47 -5
32 -9 36 -48 44 -33 6 -45 14 -53 35 -12 30 -8 250 4 270 6 9 106 12 443 12
l434 0 11 -27z m739 8 c16 -30 12 -107 -6 -121 -8 -8 -32 -16 -52 -19 -30 -5
-38 -11 -40 -32 -4 -35 -369 -399 -400 -399 -17 0 -22 -6 -22 -28 0 -50 -25
-72 -80 -72 -63 0 -80 17 -80 80 0 58 18 80 65 80 29 0 33 4 39 33 9 48 360
397 399 397 23 0 27 4 27 31 0 57 14 69 80 69 48 0 61 -4 70 -19z m850 0 c5
-11 10 -36 10 -55 0 -35 1 -36 38 -36 21 0 43 -5 50 -12 9 -9 12 -73 12 -224
0 -209 0 -213 -22 -228 -12 -9 -35 -16 -50 -16 -24 0 -28 -4 -28 -28 0 -15 -7
-38 -16 -50 -15 -22 -16 -22 -329 -22 -348 0 -345 0 -345 64 0 32 -2 34 -42
39 -23 3 -48 14 -55 23 -18 25 -19 413 0 437 6 9 30 17 52 19 39 3 40 4 43 43
2 22 8 45 14 52 8 10 86 13 334 13 309 0 324 -1 334 -19z m2021 -8 c12 -32 6
-100 -11 -117 -8 -8 -120 -12 -370 -14 l-360 -3 0 -184 0 -185 359 0 c406 0
386 4 386 -80 0 -85 28 -80 -450 -80 -381 0 -424 2 -436 17 -11 13 -14 78 -14
327 0 171 3 319 7 329 7 16 38 17 443 17 l435 0 11 -27z m-9057 -69 c11 -28 6
-71 -9 -84 -12 -10 -212 -7 -992 16 -538 16 -962 31 -943 32 61 6 1557 49
1751 51 162 1 188 -1 193 -15z m10516 -14 c376 -12 685 -22 687 -23 1 -2 -269
-11 -600 -20 -331 -10 -773 -23 -981 -29 -364 -11 -379 -10 -392 7 -17 23 -18
49 -3 77 11 21 14 21 308 14 163 -3 604 -15 981 -26z m-7944 -174 c19 -26 18
-86 -2 -114 -15 -22 -19 -22 -234 -22 -249 0 -240 -3 -240 84 0 75 9 77 253
74 193 -3 210 -4 223 -22z m-2582 -12 c21 -21 20 -67 -1 -86 -16 -15 -141 -13
-1313 12 -712 15 -1297 29 -1300 30 -5 3 2238 56 2477 59 99 1 125 -2 137 -15z
m9951 1 c330 -7 891 -19 1248 -26 356 -7 647 -16 647 -19 0 -3 -402 -14 -892
-24 -491 -10 -1073 -22 -1293 -26 -398 -9 -400 -9 -417 11 -22 26 -23 48 -2
77 18 26 -58 26 709 7z m-9927 -227 c9 -20 10 -32 1 -52 l-12 -26 -141 0
c-156 0 -2345 48 -2416 53 -25 2 14 5 85 6 72 1 571 13 1110 26 539 12 1065
22 1170 21 l190 -1 13 -27z m10272 12 c1242 -27 1541 -35 1490 -37 -89 -5
-2278 -53 -2410 -53 -149 0 -160 4 -160 55 0 17 5 36 12 43 16 16 26 16 1068
-8z m-10302 -196 c27 -19 29 -64 4 -88 -18 -15 -114 -14 -1478 11 -802 16
-1436 30 -1409 31 41 3 746 18 2795 61 45 1 73 -4 88 -15z m9892 1 c1171 -22
2284 -46 2287 -48 1 -2 -316 -9 -705 -15 -389 -7 -1044 -19 -1457 -28 l-750
-15 -17 22 c-24 28 -23 54 3 80 20 20 28 20 187 15 92 -3 295 -8 452 -11z
m-9886 -214 c23 -25 17 -72 -10 -86 -14 -7 -493 -2 -1540 17 -835 14 -1546 28
-1579 30 -63 3 2526 54 2896 57 201 1 217 0 233 -18z m11113 -12 c722 -13
1311 -25 1309 -26 -3 -3 -2728 -52 -2979 -54 -157 -1 -181 1 -198 17 -23 21
-24 42 -2 73 l16 24 271 -6 c149 -3 861 -16 1583 -28z m-6595 1 c32 -9 108
-77 108 -98 0 -4 31 -7 69 -7 61 0 75 -4 112 -30 63 -44 91 -105 87 -181 -5
-80 -40 -133 -111 -169 l-51 -25 -328 0 c-365 0 -382 3 -418 62 -40 66 -16
144 56 178 26 13 52 19 64 15 18 -6 20 -2 20 40 0 40 5 52 34 81 26 26 42 34
71 34 20 0 45 -5 55 -10 16 -9 22 -6 34 17 29 56 91 99 146 102 8 1 31 -4 52
-9z m-4496 -209 c15 -29 7 -59 -19 -73 -15 -7 -547 -3 -1951 18 -1062 16
-1897 30 -1856 32 196 9 3778 57 3795 51 11 -3 25 -16 31 -28z m11678 -1 c776
-11 1411 -22 1413 -23 2 -3 -1025 -19 -3105 -48 -714 -11 -754 -10 -772 6 -31
28 -25 71 12 91 17 10 123 8 2452 -26z m-11706 -186 c14 -10 22 -25 22 -44 0
-63 140 -61 -2045 -30 -1094 15 -1992 29 -1995 30 -5 3 3435 56 3800 59 163 1
199 -2 218 -15z m11555 -16 c946 -12 1711 -25 1700 -29 -10 -4 -659 -15 -1443
-24 -784 -9 -1672 -20 -1975 -25 -525 -9 -551 -9 -575 9 -36 26 -37 54 -3 81
28 23 29 23 303 17 151 -3 1048 -16 1993 -29z m-7273 -163 l0 -35 25 16 c34
22 47 8 15 -16 l-25 -19 23 -16 c32 -24 27 -38 -8 -20 l-30 16 0 -30 c0 -16
-4 -33 -10 -36 -6 -4 -10 8 -10 29 0 41 -2 42 -36 20 -35 -24 -44 -8 -10 19
l28 23 -26 13 c-29 16 -36 37 -8 26 47 -20 52 -18 52 14 0 17 5 31 10 31 6 0
10 -16 10 -35z m520 -2 c0 -18 4 -24 15 -19 8 3 22 9 30 12 26 11 16 -15 -11
-29 l-26 -14 26 -16 c36 -24 33 -41 -4 -22 l-30 16 0 -30 c0 -16 -4 -33 -10
-36 -6 -4 -10 8 -10 29 0 41 -2 42 -36 20 -35 -24 -44 -8 -10 19 l28 23 -26
13 c-29 16 -36 37 -8 26 47 -20 52 -18 52 14 0 19 4 30 10 26 6 -3 10 -18 10
-32z m-260 -24 c0 -24 4 -30 15 -25 8 3 22 9 30 12 27 11 16 -12 -12 -25 l-27
-13 27 -16 c28 -18 38 -38 12 -28 -8 3 -22 9 -30 12 -11 5 -15 -1 -15 -25 0
-17 -4 -31 -10 -31 -5 0 -10 14 -10 31 0 26 -3 30 -17 24 -37 -15 -53 -17 -53
-6 0 6 4 11 8 11 5 0 17 6 27 14 19 14 19 15 -8 27 -15 7 -27 17 -27 22 0 9
17 7 53 -8 14 -6 17 -2 17 24 0 17 5 31 10 31 6 0 10 -14 10 -31z m-4557 10
c42 -23 50 -64 17 -94 -19 -17 -84 -17 -1792 9 -975 15 -1780 28 -1788 30 -8
2 59 5 150 6 259 3 3385 57 3388 59 2 0 13 -4 25 -10z m11452 -28 c1324 -21
1530 -26 1305 -29 -63 -1 -655 -11 -1315 -22 -660 -10 -1417 -22 -1681 -26
l-482 -7 -17 27 c-15 22 -16 31 -6 52 6 13 20 28 30 32 11 4 201 4 423 0 222
-3 1006 -16 1743 -27z m-7365 -61 c0 -35 2 -36 34 -14 16 10 26 12 31 5 3 -6
-5 -16 -19 -23 -33 -14 -33 -25 -1 -40 25 -11 34 -28 15 -28 -6 0 -22 7 -35
16 -25 16 -25 16 -25 -20 0 -20 -4 -36 -10 -36 -5 0 -10 16 -10 36 0 34 -1 35
-22 20 -37 -26 -57 -18 -23 9 31 26 31 26 -3 44 -12 7 -20 17 -16 22 4 6 15 4
30 -5 32 -22 34 -21 34 14 0 17 5 30 10 30 6 0 10 -13 10 -30z m260 -101 c0
-26 3 -30 18 -24 9 4 26 9 37 12 16 3 15 0 -8 -19 l-27 -22 27 -23 c27 -21 27
-22 6 -23 -12 0 -25 5 -28 10 -12 20 -25 9 -25 -20 0 -16 -4 -30 -10 -30 -5 0
-10 14 -10 30 0 29 -13 40 -25 20 -3 -5 -16 -10 -28 -9 -21 0 -21 1 6 22 l27
21 -27 24 c-23 19 -24 23 -8 19 11 -3 28 -8 38 -12 14 -6 17 -2 17 24 0 17 5
31 10 31 6 0 10 -14 10 -31z m340 0 c0 -24 4 -30 15 -25 8 3 22 9 30 12 27 11
16 -12 -12 -25 l-27 -13 27 -16 c42 -26 30 -45 -14 -22 -17 10 -19 7 -19 -20
0 -16 -4 -30 -10 -30 -5 0 -10 14 -10 31 0 26 -3 30 -17 24 -37 -15 -53 -17
-53 -6 0 6 4 11 8 11 5 0 17 6 27 14 19 14 19 15 -8 27 -29 13 -38 36 -9 24
47 -20 52 -18 52 14 0 17 5 31 10 31 6 0 10 -14 10 -31z m-4655 -23 c11 -8 18
-26 18 -45 0 -67 119 -64 -1470 -34 -793 15 -1439 30 -1437 33 3 3 616 17
1362 31 746 14 1391 27 1433 28 50 1 81 -4 94 -13z m10180 -6 c1381 -22 1945
-34 1945 -42 0 -4 -68 -8 -151 -8 -83 0 -731 -11 -1441 -25 -1212 -24 -1292
-25 -1309 -9 -24 21 -24 61 -2 86 16 18 29 19 197 13 100 -3 442 -10 761 -15z
m-10191 -206 c22 -21 20 -70 -3 -86 -15 -11 -254 -8 -1367 14 -742 14 -1383
27 -1424 29 -85 2 2290 55 2587 58 162 1 194 -1 207 -15z m10723 -11 c766 -15
1391 -29 1389 -30 -2 -2 -767 -18 -2474 -51 -200 -4 -372 -4 -382 0 -28 10
-36 53 -16 83 13 19 25 25 54 25 20 1 663 -12 1429 -27z m-8689 -185 l3 -28
-120 0 -121 0 0 -75 0 -74 108 -3 107 -3 3 -27 3 -28 -110 0 -111 0 0 -80 0
-80 120 0 120 0 0 -30 0 -30 -150 0 -150 0 0 245 0 246 148 -3 147 -3 3 -27z
m307 -156 l130 -183 5 183 5 183 28 3 27 3 0 -245 0 -246 -27 0 c-25 0 -43 22
-158 185 l-130 185 -3 -185 -2 -185 -30 0 -30 0 0 246 0 245 28 -3 c23 -2 48
-33 157 -186z m683 156 l3 -27 -83 -3 -83 -3 -3 -212 -2 -213 -30 0 -30 0 0
215 0 215 -80 0 -80 0 0 30 0 30 193 -2 192 -3 3 -27z m390 0 l3 -27 -118 -3
-118 -3 -3 -72 -3 -73 111 0 110 0 0 -30 0 -30 -110 0 -110 0 0 -80 0 -79 123
-3 122 -3 3 -27 3 -28 -155 0 -156 0 0 238 c0 131 3 242 7 246 4 3 70 5 147 4
l141 -3 3 -27z m387 10 c57 -30 78 -63 83 -128 5 -71 -19 -119 -73 -144 l-35
-17 60 -89 61 -90 -38 0 c-36 1 -41 5 -94 83 l-55 82 -57 3 -57 3 0 -86 0 -85
-30 0 -30 0 0 246 0 246 118 -4 c80 -3 126 -9 147 -20z m553 -10 l3 -28 -85 0
-86 0 0 -215 0 -215 -30 0 -30 0 0 215 0 215 -80 0 -80 0 0 30 0 30 193 -2
192 -3 3 -27z m292 11 c17 -31 190 -452 190 -462 0 -4 -14 -7 -31 -5 -28 3
-34 10 -53 56 l-21 52 -119 -2 -119 -3 -20 -52 c-19 -50 -22 -53 -54 -53 -24
0 -34 4 -30 13 3 6 44 107 92 222 48 116 91 220 96 233 11 29 54 30 69 1z
m340 -224 l0 -245 -30 0 -30 0 0 245 0 245 30 0 30 0 0 -245z m330 54 l135
-192 3 192 2 192 28 -3 27 -3 3 -243 2 -243 -32 3 c-30 3 -44 18 -163 188
l-130 184 -3 -187 -2 -187 -30 0 -30 0 0 245 0 245 28 0 c25 0 42 -21 162
-191z m486 48 c51 -76 95 -139 98 -140 4 -1 48 61 99 138 77 118 96 141 120
143 l27 3 0 -245 0 -246 -30 0 -30 0 -2 181 -3 182 -78 -117 c-64 -96 -81
-116 -102 -116 -21 0 -38 20 -102 116 l-78 117 -3 -182 -2 -181 -30 0 -30 0 0
246 0 245 28 -3 c23 -2 42 -25 118 -141z m782 111 l3 -27 -118 -3 -118 -3 -3
-72 -3 -73 111 0 110 0 0 -30 0 -30 -110 0 -110 0 0 -80 0 -79 123 -3 122 -3
3 -27 3 -28 -155 0 -156 0 0 238 c0 131 3 242 7 246 4 3 70 5 147 4 l141 -3 3
-27z m312 -159 l135 -192 3 192 2 192 28 -3 27 -3 3 -243 2 -243 -32 3 c-30 3
-44 18 -163 188 l-130 184 -3 -187 -2 -187 -30 0 -30 0 0 245 0 245 28 0 c25
0 42 -21 162 -191z m680 161 l0 -30 -80 0 -80 0 0 -215 0 -215 -35 0 -35 0 0
215 0 215 -80 0 -80 0 0 30 0 30 195 0 195 0 0 -30z m-7578 -7 c21 -19 24 -61
5 -86 -11 -17 -87 -16 -1337 10 -729 16 -1302 30 -1275 31 38 3 1309 33 2529
61 43 1 65 -4 78 -16z m9803 2 c1705 -37 2099 -46 2102 -48 1 -2 -379 -11
-845 -20 -466 -10 -1061 -23 -1322 -28 l-475 -11 -17 22 c-24 29 -23 55 3 81
19 19 28 20 162 15 78 -3 255 -8 392 -11z m-9774 -228 c4 -16 4 -40 -1 -53 -9
-24 -12 -24 -132 -24 -103 0 -1702 47 -1763 51 -40 3 1683 56 1784 55 l105 -1
7 -28z m10049 8 c261 -8 604 -17 763 -21 158 -4 286 -9 284 -10 -4 -5 -1192
-43 -1575 -51 -344 -7 -332 -9 -332 53 0 54 7 56 205 49 99 -3 394 -12 655
-20z"/>
<path d="M12520 10310 l0 -190 290 0 290 0 0 190 0 190 -290 0 -290 0 0 -190z"/>
<path d="M8210 10460 c0 -25 -13 -43 -65 -91 -36 -34 -65 -68 -65 -75 0 -11
30 -14 160 -14 123 0 160 3 160 13 0 7 -29 42 -65 77 -49 49 -65 71 -65 92 0
24 -4 28 -30 28 -27 0 -30 -3 -30 -30z"/>
<path d="M11560 10305 l0 -185 295 0 295 0 -2 183 -3 182 -292 3 -293 2 0
-185z"/>
<path d="M8740 8380 l0 -100 63 0 c89 0 134 15 152 50 31 60 7 123 -53 139
-20 6 -65 11 -99 11 l-63 0 0 -100z"/>
<path d="M9711 8335 c-24 -58 -41 -108 -39 -111 3 -3 44 -4 91 -2 l85 3 -40
100 c-22 55 -43 103 -47 107 -4 5 -26 -39 -50 -97z"/>
</g>
</svg>
